<svg width="111" height="108" viewBox="0 0 111 108" fill="none" xmlns="http://www.w3.org/2000/svg">
<g id="system-uicons:message">
<g id="Group">
<path id="Vector" d="M81.9285 43.7143H50.2142M87.2142 18C90.018 18 92.7068 19.0837 94.6894 21.0126C96.6719 22.9416 97.7857 25.5578 97.7857 28.2857V79.7143C97.7857 82.4422 96.6719 85.0584 94.6894 86.9874C92.7068 88.9163 90.018 90 87.2142 90L71.3624 89.9949L59.2369 101.793C58.3268 102.678 57.1158 103.21 55.8313 103.289C54.5467 103.367 53.2768 102.987 52.2598 102.219L51.763 101.793L39.6375 89.9949L23.7857 90C20.9819 90 18.2931 88.9163 16.3105 86.9874C14.328 85.0584 13.2142 82.4422 13.2142 79.7143V28.2857C13.2142 25.5578 14.328 22.9416 16.3105 21.0126C18.2931 19.0837 20.9819 18 23.7857 18H87.2142Z" stroke="#D8DAD3" stroke-width="1.33333" stroke-linecap="round" stroke-linejoin="round"/>
<path id="Vector_2" fill-rule="evenodd" clip-rule="evenodd" d="M34.3518 48.8571C36.9947 48.8571 39.6376 46.2857 39.6376 43.7143C39.6376 41.1429 36.9947 38.5714 34.3518 38.5714C31.709 38.5714 29.0714 41.1429 29.0714 43.7143C29.0714 46.2857 31.709 48.8571 34.3518 48.8571ZM34.3518 69.4286C36.9947 69.4286 39.6376 66.8571 39.6376 64.2857C39.6376 61.7143 36.9947 59.1429 34.3518 59.1429C31.709 59.1429 29.0714 61.7143 29.0714 64.2857C29.0714 66.8571 31.709 69.4286 34.3518 69.4286Z" fill="#D8DAD3"/>
<path id="Vector_3" d="M81.9285 64.2857H50.2142" stroke="#D8DAD3" stroke-width="1.33333" stroke-linecap="round" stroke-linejoin="round"/>
</g>
</g>
</svg>
